<svg width="23" height="23" viewBox="0 0 23 23" fill="none" xmlns="http://www.w3.org/2000/svg">
<path d="M1.78203 22.9965C1.01988 23.0102 0.516322 22.6959 0.203299 22.0947C-0.0961153 21.5072 -0.0688958 20.906 0.312177 20.3458C0.448274 20.1545 0.6252 19.9768 0.788517 19.8129C3.40158 17.2031 6.01465 14.5797 8.62772 11.9699C9.10406 11.4917 9.10406 11.4917 8.62772 11.0134C6.02826 8.40366 3.44241 5.76656 0.788517 3.19778C-0.204993 2.21399 -0.0825056 1.0799 0.502713 0.478699C1.10154 -0.122506 2.24476 -0.245479 3.21105 0.751973C5.74246 3.36175 8.34192 5.93053 10.9142 8.49931C11.513 9.10052 11.513 9.10052 12.1254 8.48565C14.7113 5.87587 17.3107 3.27976 19.9102 0.669991C20.3049 0.273743 20.7404 -0.0131957 21.3392 0.000468079C21.9925 0.0277955 22.496 0.30107 22.7954 0.874947C23.0949 1.46249 23.0676 2.06369 22.7002 2.62391C22.5641 2.82886 22.3735 3.02015 22.1966 3.19778C19.5835 5.80756 16.9841 8.43099 14.3574 11.0271C13.9763 11.396 14.0036 11.601 14.371 11.9562C17.0385 14.5933 19.6788 17.2441 22.3191 19.8949C22.7274 20.3048 23.0132 20.7557 22.986 21.3705C22.9315 22.6413 21.5434 23.4201 20.4546 22.7506C20.2232 22.6139 20.0191 22.4227 19.8285 22.2314C17.2155 19.6216 14.616 16.9982 12.0029 14.3884C11.4994 13.8828 11.4994 13.8828 11.0094 14.3747C8.38274 17.0118 5.74246 19.6489 3.11578 22.2997C2.73471 22.7096 2.31281 23.0375 1.78203 22.9965Z" fill="white"/>
</svg>
