<svg xmlns="http://www.w3.org/2000/svg" width="19.269" height="24.312" viewBox="0 0 19.269 24.312">
  <g id="bell" style="isolation: isolate">
    <path id="Path_18" data-name="Path 18" d="M184.9,465.044a3.673,3.673,0,0,0,6.723,0Z" transform="translate(-178.631 -442.925)" fill="#acacac"/>
    <path id="Path_19" data-name="Path 19" d="M199.1,2.323a8.261,8.261,0,0,1,2.821.494V2.708A2.711,2.711,0,0,0,199.21,0h-.224a2.711,2.711,0,0,0-2.708,2.708v.107A8.277,8.277,0,0,1,199.1,2.323Z" transform="translate(-189.463 0)" fill="#acacac"/>
    <path id="Path_20" data-name="Path 20" d="M71.55,95.778h-17.8a.726.726,0,0,1-.715-.557.692.692,0,0,1,.381-.788,3.778,3.778,0,0,0,1.15-1.563,18.06,18.06,0,0,0,1.2-7.147A6.888,6.888,0,0,1,69.536,85.7c0,.009,0,.018,0,.027a18.06,18.06,0,0,0,1.2,7.147,3.777,3.777,0,0,0,1.15,1.563.692.692,0,0,1,.381.788A.726.726,0,0,1,71.55,95.778Zm.342-1.339h0Z" transform="translate(-53.013 -75.086)" fill="#acacac"/>
  </g>
</svg>
