<svg xmlns="http://www.w3.org/2000/svg" width="20.965" height="26.452" viewBox="0 0 20.965 26.452">
  <g id="bell" style="isolation: isolate">
    <path id="Path_18" data-name="Path 18" d="M184.9,465.044a4,4,0,0,0,7.315,0Z" transform="translate(-178.079 -440.978)" fill="#303030"/>
    <path id="Path_19" data-name="Path 19" d="M199.346,2.527a8.988,8.988,0,0,1,3.069.538V2.947A2.95,2.95,0,0,0,199.468,0h-.244a2.95,2.95,0,0,0-2.947,2.947v.117A9.005,9.005,0,0,1,199.346,2.527Z" transform="translate(-188.863 0)" fill="#303030"/>
    <path id="Path_20" data-name="Path 20" d="M73.182,97.269H53.81a.79.79,0,0,1-.778-.606.753.753,0,0,1,.415-.857,4.111,4.111,0,0,0,1.251-1.7A19.65,19.65,0,0,0,56,86.33,7.494,7.494,0,0,1,70.99,86.3c0,.01,0,.02,0,.03a19.649,19.649,0,0,0,1.3,7.776,4.11,4.11,0,0,0,1.251,1.7.753.753,0,0,1,.415.857A.79.79,0,0,1,73.182,97.269Zm.373-1.457h0Z" transform="translate(-53.013 -74.756)" fill="#303030"/>
  </g>
</svg>
