<svg id="calendar" xmlns="http://www.w3.org/2000/svg" width="17.005" height="17.005" viewBox="0 0 17.005 17.005">
  <g id="Group_302" data-name="Group 302" transform="translate(3.644)">
    <g id="Group_301" data-name="Group 301">
      <path id="Path_5" data-name="Path 5" d="M103.007,0a.607.607,0,0,0-.607.607V1.822h1.215V.607A.607.607,0,0,0,103.007,0Z" transform="translate(-102.4)" fill="#fff"/>
    </g>
  </g>
  <g id="Group_304" data-name="Group 304" transform="translate(12.146)">
    <g id="Group_303" data-name="Group 303">
      <path id="Path_6" data-name="Path 6" d="M341.94,0a.607.607,0,0,0-.607.607V1.822h1.215V.607A.607.607,0,0,0,341.94,0Z" transform="translate(-341.333)" fill="#fff"/>
    </g>
  </g>
  <g id="Group_306" data-name="Group 306" transform="translate(0 1.822)">
    <g id="Group_305" data-name="Group 305">
      <path id="Path_7" data-name="Path 7" d="M15.183,51.2H13.361v2.429a.607.607,0,1,1-1.215,0V51.2H4.859v2.429a.607.607,0,1,1-1.215,0V51.2H1.822A1.822,1.822,0,0,0,0,53.022V64.561a1.822,1.822,0,0,0,1.822,1.822H15.183A1.822,1.822,0,0,0,17,64.561V53.022A1.822,1.822,0,0,0,15.183,51.2Zm.607,13.361a.607.607,0,0,1-.607.607H1.822a.607.607,0,0,1-.607-.607v-7.9H15.79Z" transform="translate(0 -51.2)" fill="#fff"/>
    </g>
  </g>
  <g id="Group_308" data-name="Group 308" transform="translate(3.037 8.502)">
    <g id="Group_307" data-name="Group 307">
      <path id="Path_8" data-name="Path 8" d="M87.155,238.933H85.94a.607.607,0,1,0,0,1.215h1.215a.607.607,0,1,0,0-1.215Z" transform="translate(-85.333 -238.933)" fill="#fff"/>
    </g>
  </g>
  <g id="Group_310" data-name="Group 310" transform="translate(7.288 8.502)">
    <g id="Group_309" data-name="Group 309">
      <path id="Path_9" data-name="Path 9" d="M206.622,238.933h-1.215a.607.607,0,0,0,0,1.215h1.215a.607.607,0,1,0,0-1.215Z" transform="translate(-204.8 -238.933)" fill="#fff"/>
    </g>
  </g>
  <g id="Group_312" data-name="Group 312" transform="translate(11.539 8.502)">
    <g id="Group_311" data-name="Group 311">
      <path id="Path_10" data-name="Path 10" d="M326.089,238.933h-1.215a.607.607,0,1,0,0,1.215h1.215a.607.607,0,1,0,0-1.215Z" transform="translate(-324.267 -238.933)" fill="#fff"/>
    </g>
  </g>
  <g id="Group_314" data-name="Group 314" transform="translate(3.037 10.932)">
    <g id="Group_313" data-name="Group 313">
      <path id="Path_11" data-name="Path 11" d="M87.155,307.2H85.94a.607.607,0,0,0,0,1.215h1.215a.607.607,0,0,0,0-1.215Z" transform="translate(-85.333 -307.2)" fill="#fff"/>
    </g>
  </g>
  <g id="Group_316" data-name="Group 316" transform="translate(7.288 10.932)">
    <g id="Group_315" data-name="Group 315">
      <path id="Path_12" data-name="Path 12" d="M206.622,307.2h-1.215a.607.607,0,0,0,0,1.215h1.215a.607.607,0,1,0,0-1.215Z" transform="translate(-204.8 -307.2)" fill="#fff"/>
    </g>
  </g>
  <g id="Group_318" data-name="Group 318" transform="translate(11.539 10.932)">
    <g id="Group_317" data-name="Group 317">
      <path id="Path_13" data-name="Path 13" d="M326.089,307.2h-1.215a.607.607,0,0,0,0,1.215h1.215a.607.607,0,0,0,0-1.215Z" transform="translate(-324.267 -307.2)" fill="#fff"/>
    </g>
  </g>
  <g id="Group_320" data-name="Group 320" transform="translate(3.037 13.361)">
    <g id="Group_319" data-name="Group 319">
      <path id="Path_14" data-name="Path 14" d="M87.155,375.467H85.94a.607.607,0,1,0,0,1.215h1.215a.607.607,0,1,0,0-1.215Z" transform="translate(-85.333 -375.467)" fill="#fff"/>
    </g>
  </g>
  <g id="Group_322" data-name="Group 322" transform="translate(7.288 13.361)">
    <g id="Group_321" data-name="Group 321">
      <path id="Path_15" data-name="Path 15" d="M206.622,375.467h-1.215a.607.607,0,0,0,0,1.215h1.215a.607.607,0,1,0,0-1.215Z" transform="translate(-204.8 -375.467)" fill="#fff"/>
    </g>
  </g>
  <g id="Group_324" data-name="Group 324" transform="translate(11.539 13.361)">
    <g id="Group_323" data-name="Group 323">
      <path id="Path_16" data-name="Path 16" d="M326.089,375.467h-1.215a.607.607,0,1,0,0,1.215h1.215a.607.607,0,1,0,0-1.215Z" transform="translate(-324.267 -375.467)" fill="#fff"/>
    </g>
  </g>
</svg>
