<svg id="calendar" xmlns="http://www.w3.org/2000/svg" width="21.997" height="21.997" viewBox="0 0 21.997 21.997">
  <g id="Group_5156" data-name="Group 5156" transform="translate(4.691)">
    <g id="Group_5155" data-name="Group 5155">
      <path id="Path_8670" data-name="Path 8670" d="M103.235,0a.835.835,0,0,0-.835.835V2.5h1.67V.835A.835.835,0,0,0,103.235,0Z" transform="translate(-102.4 0)" fill="#5b5b5b"/>
    </g>
  </g>
  <g id="Group_5158" data-name="Group 5158" transform="translate(15.636)">
    <g id="Group_5157" data-name="Group 5157">
      <path id="Path_8671" data-name="Path 8671" d="M342.168,0a.835.835,0,0,0-.835.835V2.5H343V.835A.835.835,0,0,0,342.168,0Z" transform="translate(-341.333 0)" fill="#5b5b5b"/>
    </g>
  </g>
  <g id="Group_5160" data-name="Group 5160" transform="translate(0 2.505)">
    <g id="Group_5159" data-name="Group 5159">
      <path id="Path_8672" data-name="Path 8672" d="M19.64,51.2H17.283v3.119a.786.786,0,0,1-1.571,0V51.2H6.285v3.119a.786.786,0,0,1-1.571,0V51.2H2.357A2.348,2.348,0,0,0,0,53.539V68.353a2.348,2.348,0,0,0,2.357,2.339H19.64A2.348,2.348,0,0,0,22,68.353V53.539A2.348,2.348,0,0,0,19.64,51.2Zm.786,17.153a.783.783,0,0,1-.786.78H2.357a.783.783,0,0,1-.786-.78V58.217H20.426Z" transform="translate(0 -51.2)" fill="#5b5b5b"/>
    </g>
  </g>
  <g id="Group_5162" data-name="Group 5162" transform="translate(3.887 10.945)">
    <g id="Group_5161" data-name="Group 5161">
      <path id="Path_8673" data-name="Path 8673" d="M87.838,238.933h-1.67a.835.835,0,1,0,0,1.67h1.67a.835.835,0,1,0,0-1.67Z" transform="translate(-85.333 -238.933)" fill="#5b5b5b"/>
    </g>
  </g>
  <g id="Group_5164" data-name="Group 5164" transform="translate(9.329 10.945)">
    <g id="Group_5163" data-name="Group 5163">
      <path id="Path_8674" data-name="Path 8674" d="M207.3,238.933h-1.67a.835.835,0,0,0,0,1.67h1.67a.835.835,0,1,0,0-1.67Z" transform="translate(-204.8 -238.933)" fill="#5b5b5b"/>
    </g>
  </g>
  <g id="Group_5166" data-name="Group 5166" transform="translate(14.77 10.945)">
    <g id="Group_5165" data-name="Group 5165">
      <path id="Path_8675" data-name="Path 8675" d="M326.772,238.933H325.1a.835.835,0,1,0,0,1.67h1.67a.835.835,0,0,0,0-1.67Z" transform="translate(-324.267 -238.933)" fill="#5b5b5b"/>
    </g>
  </g>
  <g id="Group_5168" data-name="Group 5168" transform="translate(3.887 14.073)">
    <g id="Group_5167" data-name="Group 5167">
      <path id="Path_8676" data-name="Path 8676" d="M87.838,307.2h-1.67a.835.835,0,1,0,0,1.67h1.67a.835.835,0,1,0,0-1.67Z" transform="translate(-85.333 -307.2)" fill="#5b5b5b"/>
    </g>
  </g>
  <g id="Group_5170" data-name="Group 5170" transform="translate(9.329 14.073)">
    <g id="Group_5169" data-name="Group 5169">
      <path id="Path_8677" data-name="Path 8677" d="M207.3,307.2h-1.67a.835.835,0,0,0,0,1.67h1.67a.835.835,0,1,0,0-1.67Z" transform="translate(-204.8 -307.2)" fill="#5b5b5b"/>
    </g>
  </g>
  <g id="Group_5172" data-name="Group 5172" transform="translate(14.77 14.073)">
    <g id="Group_5171" data-name="Group 5171">
      <path id="Path_8678" data-name="Path 8678" d="M326.772,307.2H325.1a.835.835,0,1,0,0,1.67h1.67a.835.835,0,0,0,0-1.67Z" transform="translate(-324.267 -307.2)" fill="#5b5b5b"/>
    </g>
  </g>
  <g id="Group_5174" data-name="Group 5174" transform="translate(3.887 16.987)">
    <g id="Group_5173" data-name="Group 5173">
      <path id="Path_8679" data-name="Path 8679" d="M87.838,375.467h-1.67a.835.835,0,1,0,0,1.67h1.67a.835.835,0,1,0,0-1.67Z" transform="translate(-85.333 -375.467)" fill="#5b5b5b"/>
    </g>
  </g>
  <g id="Group_5176" data-name="Group 5176" transform="translate(9.329 16.987)">
    <g id="Group_5175" data-name="Group 5175">
      <path id="Path_8680" data-name="Path 8680" d="M207.3,375.467h-1.67a.835.835,0,0,0,0,1.67h1.67a.835.835,0,1,0,0-1.67Z" transform="translate(-204.8 -375.467)" fill="#5b5b5b"/>
    </g>
  </g>
  <g id="Group_5178" data-name="Group 5178" transform="translate(14.77 16.987)">
    <g id="Group_5177" data-name="Group 5177">
      <path id="Path_8681" data-name="Path 8681" d="M326.772,375.467H325.1a.835.835,0,1,0,0,1.67h1.67a.835.835,0,0,0,0-1.67Z" transform="translate(-324.267 -375.467)" fill="#5b5b5b"/>
    </g>
  </g>
</svg>
