<svg xmlns="http://www.w3.org/2000/svg" xmlns:xlink="http://www.w3.org/1999/xlink" width="125.999" height="126" viewBox="0 0 125.999 126">
  <defs>
    <filter id="Path_102" x="0" y="0" width="125.999" height="126" filterUnits="userSpaceOnUse">
      <feOffset dy="6" input="SourceAlpha"/>
      <feGaussianBlur stdDeviation="10" result="blur"/>
      <feFlood flood-color="#ff7b7b" flood-opacity="0.6"/>
      <feComposite operator="in" in2="blur"/>
      <feComposite in="SourceGraphic"/>
    </filter>
  </defs>
  <g id="Group_4845" data-name="Group 4845" transform="translate(-937 -537)">
    <g transform="matrix(1, 0, 0, 1, 937, 537)" filter="url(#Path_102)">
      <path id="Path_102-2" data-name="Path 102" d="M33,0A33,33,0,1,0,66,33,33.038,33.038,0,0,0,33,0Z" transform="translate(30 24)" fill="#f77"/>
    </g>
    <path id="Subtraction_4" data-name="Subtraction 4" d="M26.967,41.954a2.643,2.643,0,0,1-1.843-.739L17.755,34.1a2.458,2.458,0,0,1,0-3.562,2.671,2.671,0,0,1,3.686,0l5.525,5.34,15.1-14.59a2.67,2.67,0,0,1,3.684,0,2.459,2.459,0,0,1,0,3.563L28.81,41.216A2.636,2.636,0,0,1,26.967,41.954Z" transform="translate(968.509 562.952)" fill="#fff" stroke="#f77" stroke-width="1.4"/>
  </g>
</svg>
