<svg xmlns="http://www.w3.org/2000/svg" width="29.885" height="38.402" viewBox="0 0 29.885 38.402">
  <g id="doc" transform="translate(-6.299 0.2)">
    <path id="Path_8511" data-name="Path 8511" d="M35.624,7.985l-.505-.505L28.5.866,28,.36a1.239,1.239,0,0,0-.87-.36H8.114A1.7,1.7,0,0,0,6.5,1.917V36.692a1.5,1.5,0,0,0,1.2,1.251c.033.009.064.021.1.028A1.6,1.6,0,0,0,8.114,38H34.371a1.6,1.6,0,0,0,.311-.031c.034-.007.066-.019.1-.028a1.5,1.5,0,0,0,1.2-1.251V9.158A1.51,1.51,0,0,0,35.624,7.985Zm-1.975-.123H28.122V2.336ZM8.114,36.692a.378.378,0,0,1-.13-.032.3.3,0,0,1-.174-.271V25.141H34.673V36.388a.3.3,0,0,1-.174.271.378.378,0,0,1-.13.032Zm-.3-12.861V1.917c0-.142.022-.607.3-.607H26.849a1.009,1.009,0,0,0-.038.256V9.173h7.606a1,1,0,0,0,.256-.038c0,.01,0,.014,0,.024V23.831Z" transform="translate(0 0)" fill="#303030" stroke="#303030" stroke-width="0.4"/>
    <path id="Path_8512" data-name="Path 8512" d="M20.866,44.891a3.034,3.034,0,0,0-1.048-.7,3.783,3.783,0,0,0-1.464-.264H16.365v6.6h2.5a3.564,3.564,0,0,0,.385-.031,2.644,2.644,0,0,0,.573-.143,3,3,0,0,0,.649-.336,2.279,2.279,0,0,0,.6-.614,3.463,3.463,0,0,0,.444-.968A4.85,4.85,0,0,0,21.7,47.04a3.315,3.315,0,0,0-.206-1.151A2.9,2.9,0,0,0,20.866,44.891Zm-.784,4.147a1.78,1.78,0,0,1-1.576.7H17.44v-5h.627a3.3,3.3,0,0,1,1.254.2,2.009,2.009,0,0,1,.766.529,1.744,1.744,0,0,1,.381.73,3.429,3.429,0,0,1,.1.815A3.544,3.544,0,0,1,20.083,49.039Z" transform="translate(-3.401 -16.262)" fill="#303030" stroke="#303030" stroke-width="0.4"/>
    <path id="Path_8513" data-name="Path 8513" d="M30.788,44.619a2.49,2.49,0,0,0-.869-.641,2.808,2.808,0,0,0-2.177,0,2.49,2.49,0,0,0-.869.641,3.009,3.009,0,0,0-.582,1.052,5.219,5.219,0,0,0,0,2.933,2.986,2.986,0,0,0,.582,1.057,2.437,2.437,0,0,0,.869.636,2.863,2.863,0,0,0,2.177,0,2.437,2.437,0,0,0,.869-.636A3.012,3.012,0,0,0,31.37,48.6a5.219,5.219,0,0,0,0-2.933A3.019,3.019,0,0,0,30.788,44.619Zm-.444,3.686a2.169,2.169,0,0,1-.372.775,1.4,1.4,0,0,1-.537.425,1.577,1.577,0,0,1-.632.13,1.4,1.4,0,0,1-.614-.139,1.431,1.431,0,0,1-.52-.439,2.252,2.252,0,0,1-.358-.775,4.629,4.629,0,0,1-.139-1.147,4.538,4.538,0,0,1,.143-1.164,2.219,2.219,0,0,1,.372-.775,1.352,1.352,0,0,1,.537-.425,1.615,1.615,0,0,1,.632-.125,1.448,1.448,0,0,1,.614.134,1.376,1.376,0,0,1,.52.439,2.305,2.305,0,0,1,.358.775,4.8,4.8,0,0,1,0,2.311Z" transform="translate(-6.751 -16.206)" fill="#303030" stroke="#303030" stroke-width="0.4"/>
    <path id="Path_8514" data-name="Path 8514" d="M38.216,45.2a1.352,1.352,0,0,1,.537-.425,1.614,1.614,0,0,1,.632-.125,1.441,1.441,0,0,1,.569.117,1.365,1.365,0,0,1,.5.376l.744-.663a2.444,2.444,0,0,0-.833-.537,2.76,2.76,0,0,0-1-.179,2.664,2.664,0,0,0-1.084.219,2.477,2.477,0,0,0-.873.641,3.008,3.008,0,0,0-.582,1.052,5.219,5.219,0,0,0,0,2.933,2.986,2.986,0,0,0,.582,1.057,2.437,2.437,0,0,0,.869.636,2.711,2.711,0,0,0,1.088.215,2.774,2.774,0,0,0,1-.179,2.447,2.447,0,0,0,.833-.537l-.744-.654a1.412,1.412,0,0,1-.515.376,1.576,1.576,0,0,1-.6.117,1.4,1.4,0,0,1-.614-.139,1.431,1.431,0,0,1-.52-.439,2.252,2.252,0,0,1-.358-.775,4.63,4.63,0,0,1-.139-1.147,4.538,4.538,0,0,1,.143-1.164A2.212,2.212,0,0,1,38.216,45.2Z" transform="translate(-10.381 -16.206)" fill="#303030" stroke="#303030" stroke-width="0.4"/>
    <path id="Path_8522" data-name="Path 8522" d="M13.155,23.31h20.23a.655.655,0,1,0,0-1.31H13.155a.655.655,0,1,0,0,1.31Z" transform="translate(-2.069 -7.585)" fill="#303030" stroke="#303030" stroke-width="0.4"/>
    <path id="Path_8525" data-name="Path 8525" d="M13.155,23.31h8.958a.655.655,0,1,0,0-1.31H13.155a.655.655,0,1,0,0,1.31Z" transform="translate(-2.069 -12.056)" fill="#303030" stroke="#303030" stroke-width="0.4"/>
    <path id="Path_8524" data-name="Path 8524" d="M13.155,28.31H33.27a.655.655,0,1,0,0-1.31H13.155a.655.655,0,1,0,0,1.31Z" transform="translate(-2.069 -8.192)" fill="#303030" stroke="#303030" stroke-width="0.4"/>
  </g>
</svg>
