<svg xmlns="http://www.w3.org/2000/svg" width="24.5" height="25.238" viewBox="0 0 24.5 25.238">
  <g id="Group_4828" data-name="Group 4828" transform="translate(-1242.09 -674.673)" style="isolation: isolate">
    <path id="Path_8526" data-name="Path 8526" d="M306.227,337.524a.8.8,0,0,1-.085,0l-.057-.008-.117-.028-.053-.019-.107-.051-.1-.064a.867.867,0,0,1-.094-.08l-5.529-5.526a.868.868,0,0,1,0-1.207.863.863,0,0,1,1.222-.013l4.01,4.007.042-16.822a.859.859,0,0,1,.846-.84.868.868,0,0,1,.882.847v16.8l4.054-3.995a.864.864,0,0,1,1.22,1.225l-5.535,5.525c-.022.021-.042.039-.063.056l-.1.072-.044.025-.095.043-.053.019-.123.027a.657.657,0,0,1-.109.011Z" transform="translate(948.031 358.054)" fill="#f77" stroke="#f77" stroke-width="0.5"/>
    <rect id="Rectangle_2181" data-name="Rectangle 2181" width="24" height="1.662" rx="0.831" transform="translate(1242.34 698)" fill="#f77" stroke="#f77" stroke-width="0.5"/>
  </g>
</svg>
