<svg xmlns="http://www.w3.org/2000/svg" width="385.024" height="63.005" viewBox="0 0 385.024 63.005">
  <g id="Group_399" data-name="Group 399" transform="translate(-171.709 -566.415)" opacity="0.3">
    <path id="Path_21" data-name="Path 21" d="M211.508,587.932l-16.023,16.837,16.349,23.182H198.575L188,612.66l-4.473,4.717v10.575H172.709v-58.89h10.819v33.755l13.827-14.885Z" transform="translate(0 -0.671)" fill="none" stroke="#fff" stroke-width="2"/>
    <path id="Path_22" data-name="Path 22" d="M243.64,629.172a10.664,10.664,0,0,1,3.335-8.215,15.891,15.891,0,0,1,8.622-3.9l9.842-1.463q3.009-.406,3.009-2.847A4.668,4.668,0,0,0,266.7,609a9,9,0,0,0-10.411.407,6.989,6.989,0,0,0-2.237,4.636l-9.6-2.033a14.067,14.067,0,0,1,5.124-9.191q4.554-3.985,12.038-3.986,8.947,0,13.177,4.27a14.9,14.9,0,0,1,4.23,10.94v19.684a36.794,36.794,0,0,0,.488,6.345h-9.923a22.471,22.471,0,0,1-.407-4.8q-3.824,5.939-11.794,5.938a13.894,13.894,0,0,1-9.964-3.58A11.267,11.267,0,0,1,243.64,629.172Zm16.023,3.985a9.264,9.264,0,0,0,6.3-2.155q2.48-2.154,2.481-7.117V622.1l-9.028,1.383q-4.962.733-4.962,5.043a4.41,4.41,0,0,0,1.383,3.295A5.254,5.254,0,0,0,259.663,633.158Z" transform="translate(-28.878 -12.791)" fill="none" stroke="#fff" stroke-width="2"/>
    <path id="Path_23" data-name="Path 23" d="M332.52,627.952H321.7v-58.89H332.52Z" transform="translate(-60.66 -0.671)" fill="none" stroke="#fff" stroke-width="2"/>
    <path id="Path_24" data-name="Path 24" d="M354.9,629.172a10.666,10.666,0,0,1,3.335-8.215,15.893,15.893,0,0,1,8.622-3.9l9.842-1.463q3.009-.406,3.009-2.847A4.667,4.667,0,0,0,377.964,609a9,9,0,0,0-10.411.407,7,7,0,0,0-2.237,4.636l-9.6-2.033a14.069,14.069,0,0,1,5.124-9.191q4.555-3.985,12.039-3.986,8.946,0,13.177,4.27a14.9,14.9,0,0,1,4.229,10.94v19.684a36.787,36.787,0,0,0,.488,6.345h-9.923a22.469,22.469,0,0,1-.407-4.8q-3.824,5.939-11.795,5.938a13.9,13.9,0,0,1-9.964-3.58A11.269,11.269,0,0,1,354.9,629.172Zm16.024,3.985a9.262,9.262,0,0,0,6.3-2.155q2.481-2.154,2.481-7.117V622.1l-9.028,1.383q-4.963.733-4.962,5.043a4.409,4.409,0,0,0,1.383,3.295A5.253,5.253,0,0,0,370.928,633.158Z" transform="translate(-74.177 -12.791)" fill="none" stroke="#fff" stroke-width="2"/>
    <path id="Path_25" data-name="Path 25" d="M443.46,627.952H432.967v-58.89h10.655v23.263a11.323,11.323,0,0,1,4.678-3.864,16.61,16.61,0,0,1,7.442-1.586q8.541,0,13.5,5.856t4.962,15.048q0,9.192-5.205,15.17a17.245,17.245,0,0,1-13.665,5.979q-8.216,0-11.875-5.857ZM460.582,616.2q2.807-3.049,2.806-8.337t-2.806-8.3a9.311,9.311,0,0,0-7.117-3.009,9.438,9.438,0,0,0-7.158,3.009q-2.847,3.011-2.846,8.3t2.887,8.337a9.411,9.411,0,0,0,7.117,3.05A9.25,9.25,0,0,0,460.582,616.2Z" transform="translate(-105.959 -0.671)" fill="none" stroke="#fff" stroke-width="2"/>
    <path id="Path_26" data-name="Path 26" d="M527.749,604.444v23.508H516.931v-58.89h10.818v22.205q3.661-4.392,10.818-4.393,7.321,0,11.1,4.433t3.783,11.428v25.216H542.634V604.607a8.727,8.727,0,0,0-1.83-5.775,7.858,7.858,0,0,0-10.9,0A8.671,8.671,0,0,0,527.749,604.444Z" transform="translate(-140.144 -0.671)" fill="none" stroke="#fff" stroke-width="2"/>
    <path id="Path_27" data-name="Path 27" d="M622.417,640.91a22.808,22.808,0,0,1-.325-4.311,9.572,9.572,0,0,1-4.6,4.026,15.883,15.883,0,0,1-6.466,1.342q-7.076,0-11.144-4.514a16.2,16.2,0,0,1-4.067-11.266v-25.3h10.818v23.1a8.755,8.755,0,0,0,1.871,5.816,6.7,6.7,0,0,0,5.45,2.237,7.24,7.24,0,0,0,5.531-2.155,8.018,8.018,0,0,0,2.033-5.735V600.891H632.34v32.78a61.1,61.1,0,0,0,.406,7.24Z" transform="translate(-172.261 -13.629)" fill="none" stroke="#fff" stroke-width="2"/>
    <path id="Path_28" data-name="Path 28" d="M687.72,640.128H676.9V600.109h10.33v4.88a10.788,10.788,0,0,1,4.881-4.393,15.426,15.426,0,0,1,6.832-1.627q8.7,0,11.876,6.67,4.31-6.668,12.689-6.67a14.706,14.706,0,0,1,10.289,3.823q4.188,3.825,4.189,11.388v25.948H727.495V616.377a8.235,8.235,0,0,0-1.749-5.491,6.58,6.58,0,0,0-5.327-2.074,6.85,6.85,0,0,0-5.368,2.277,8.123,8.123,0,0,0-2.034,5.613v23.426H702.28V616.377a8.111,8.111,0,0,0-1.79-5.491,6.6,6.6,0,0,0-5.287-2.074,7,7,0,0,0-5.45,2.237,8.083,8.083,0,0,0-2.034,5.653Z" transform="translate(-205.273 -12.847)" fill="none" stroke="#fff" stroke-width="2"/>
    <path id="Path_29" data-name="Path 29" d="M796.261,574.167a6.565,6.565,0,0,1,1.952-4.759,6.361,6.361,0,0,1,4.717-1.993,6.429,6.429,0,0,1,4.718,1.952,6.525,6.525,0,0,1,1.952,4.8,6.333,6.333,0,0,1-1.952,4.636,6.676,6.676,0,0,1-9.435,0A6.33,6.33,0,0,1,796.261,574.167Zm12.12,53.114H797.562V587.262H808.38Z" transform="translate(-253.868)" fill="none" stroke="#fff" stroke-width="2"/>
  </g>
</svg>
