<svg xmlns="http://www.w3.org/2000/svg" width="23.571" height="21.334" viewBox="0 0 23.571 21.334">
  <g id="Group_5344" data-name="Group 5344" transform="translate(-31.357 -154.714)">
    <g id="Group_4588" data-name="Group 4588" transform="translate(31.357 154.714)">
      <path id="Path_290" data-name="Path 290" d="M871.7,1361.555H869.22v-2.02a1.179,1.179,0,0,1,1.111-1.246h.126a1.185,1.185,0,0,1,1.246,1.119Z" transform="translate(-865.331 -1358.288)" fill="#5b5b5b"/>
      <path id="Path_291" data-name="Path 291" d="M888.166,1362.792v6.455a7.334,7.334,0,0,0-11.665,8.694H865.837a1.239,1.239,0,0,1-1.237-1.237v-13.912a1.239,1.239,0,0,1,1.237-1.237h2.651v1.532a1.241,1.241,0,0,0,2.483,0v-1.532h11.286v-2.02a1.18,1.18,0,0,1,1.119-1.246h.126a1.176,1.176,0,0,1,1.237,1.111v2.155h-2.474v1.565a1.237,1.237,0,1,0,2.474,0v-1.565h2.188A1.351,1.351,0,0,1,888.166,1362.792Z" transform="translate(-864.6 -1358.288)" fill="#5b5b5b"/>
    </g>
    <path id="Path_279" data-name="Path 279" d="M885.351,1371.111a5.271,5.271,0,1,0,5.271,5.271A5.271,5.271,0,0,0,885.351,1371.111Zm1.756,6.15h-1.756a.831.831,0,0,1-.879-.779.926.926,0,0,1,0-.1v-2.636a.879.879,0,0,1,1.757,0v1.757h.878a.879.879,0,1,1,0,1.757Z" transform="translate(-835.695 -1205.605)" fill="#5b5b5b"/>
  </g>
</svg>
