<svg id="Group_4521" data-name="Group 4521" xmlns="http://www.w3.org/2000/svg" width="24.002" height="19.587" viewBox="0 0 24.002 19.587">
  <path id="Path_139" data-name="Path 139" d="M74.273,120.939,65.713,128a.2.2,0,0,1-.008.045.2.2,0,0,0-.007.044v7.632a.967.967,0,0,0,.953.953h5.717v-6.2h3.812v6.2H81.9a.968.968,0,0,0,.953-.953v-7.632a.21.21,0,0,0-.015-.089Z" transform="translate(-62.272 -117.083)" fill="#f77"/>
  <path id="Path_140" data-name="Path 140" d="M23.836,56.3l-3.26-2.71V47.515a.459.459,0,0,0-.476-.476H17.241a.458.458,0,0,0-.476.476v2.9l-3.633-3.037a1.847,1.847,0,0,0-2.263,0L.165,56.3a.432.432,0,0,0-.164.32.482.482,0,0,0,.1.35l.923,1.1a.508.508,0,0,0,.313.164.553.553,0,0,0,.357-.1L12,49.54l10.3,8.59a.459.459,0,0,0,.313.1h.045a.508.508,0,0,0,.313-.164l.923-1.1a.482.482,0,0,0,.1-.35A.434.434,0,0,0,23.836,56.3Z" transform="translate(0.001 -46.994)" fill="#f77"/>
</svg>
