<svg xmlns="http://www.w3.org/2000/svg" width="24.002" height="20.065" viewBox="0 0 24.002 20.065">
  <g id="Group_5340" data-name="Group 5340" transform="translate(-31.357 -288.715)">
    <path id="Path_199" data-name="Path 199" d="M23.533,46.494l-11.3-3.986a.7.7,0,0,0-.468,0L.469,46.494A.7.7,0,0,0,0,47.157c0,.3.185,2.169.466,2.269l11.3,4.016a.7.7,0,0,0,.471,0l11.3-4.016c.281-.1.47-1.971.469-2.269A.7.7,0,0,0,23.533,46.494Z" transform="translate(31.357 246.247)" fill="#5b5b5b"/>
    <path id="Path_200" data-name="Path 200" d="M432.979,199.64l-.014-1.906-1.406.5.014,1.406a1.412,1.412,0,0,0,0,2.449v7.728a.7.7,0,1,0,1.406,0v-7.728a1.412,1.412,0,0,0,0-2.449Z" transform="translate(-379.295 98.26)" fill="#5b5b5b"/>
    <path id="Path_201" data-name="Path 201" d="M112.5,224.792a2.1,2.1,0,0,1-.707-.122l-6.351-2.258v5.216c0,.757.79,1.4,2.347,1.9a16.577,16.577,0,0,0,9.421,0c1.558-.506,2.347-1.146,2.347-1.9v-5.216l-6.351,2.258A2.1,2.1,0,0,1,112.5,224.792Z" transform="translate(-69.144 76.452)" fill="#5b5b5b"/>
  </g>
</svg>
