<svg xmlns="http://www.w3.org/2000/svg" width="16.401" height="22.618" viewBox="0 0 16.401 22.618">
  <g id="Group_4513" data-name="Group 4513" transform="translate(353.339 -192.183)">
    <path id="Path_119" data-name="Path 119" d="M-345.361,214.8a1.831,1.831,0,0,1-.695-.63,46.264,46.264,0,0,1-4.915-6.856,17.735,17.735,0,0,1-2.186-5.274,7.937,7.937,0,0,1,1.969-7.174,7.786,7.786,0,0,1,4.384-2.507,8,8,0,0,1,6.465,1.391,8.076,8.076,0,0,1,3.023,4.179,8.054,8.054,0,0,1,.354,1.857A10.337,10.337,0,0,1-338,204.717,30.5,30.5,0,0,1-341.01,210a53.8,53.8,0,0,1-3.444,4.443,1.3,1.3,0,0,1-.466.361Zm.228-18.491a4.083,4.083,0,0,0-4.1,4.045,4.081,4.081,0,0,0,4.073,4.115,4.083,4.083,0,0,0,4.109-4.057A4.08,4.08,0,0,0-345.133,196.309Z" transform="translate(0 0)" fill="#fc9898"/>
  </g>
</svg>
