<svg xmlns="http://www.w3.org/2000/svg" width="23.857" height="20.088" viewBox="0 0 23.857 20.088">
  <g id="Group_5343" data-name="Group 5343" transform="translate(-33.573 -491.777)">
    <path id="Path_247" data-name="Path 247" d="M12.127,10.881a.837.837,0,0,0-.837.837v3.348a.838.838,0,0,1-.837.837H7.477V3.348a1.687,1.687,0,0,0-1.14-1.591l-.248-.083h4.364a.838.838,0,0,1,.837.837V5.022a.837.837,0,0,0,1.674,0V2.511A2.514,2.514,0,0,0,10.453,0h-12.5a.654.654,0,0,0-.09.018c-.04,0-.079-.018-.12-.018A1.676,1.676,0,0,0-3.926,1.674V16.74l.691,1.356.449.235,8.07,1.679a1.733,1.733,0,0,0,.519.078,1.676,1.676,0,0,0,1.674-1.674v-.837h2.976a2.514,2.514,0,0,0,2.511-2.511V11.718a.837.837,0,0,0-.837-.837Z" transform="translate(37.499 491.777)" fill="#5b5b5b"/>
    <path id="Path_248" data-name="Path 248" d="M22.7,8.585,19.35,5.237a.837.837,0,0,0-1.429.592V8.34l-4.084.006a.837.837,0,0,0,0,1.674l4.084-.006v2.511a.837.837,0,0,0,1.429.592L22.7,9.769A.836.836,0,0,0,22.7,8.585Z" transform="translate(34.487 490.963)" fill="#5b5b5b"/>
  </g>
</svg>
