<svg xmlns="http://www.w3.org/2000/svg" width="24.002" height="16.502" viewBox="0 0 24.002 16.502">
  <g id="Group_5342" data-name="Group 5342" transform="translate(-31.357 -424.428)">
    <g id="Group_4534" data-name="Group 4534" transform="translate(31.357 424.428)">
      <g id="Group_4533" data-name="Group 4533">
        <path id="Path_206" data-name="Path 206" d="M76.354,110.049H55.641A1.651,1.651,0,0,0,54,111.714v1.1H78v-1.1A1.652,1.652,0,0,0,76.354,110.049Z" transform="translate(-54 -110.049)" fill="#5b5b5b"/>
      </g>
    </g>
    <g id="Group_4536" data-name="Group 4536" transform="translate(31.357 428.714)">
      <g id="Group_4535" data-name="Group 4535" transform="translate(0 0)">
        <rect id="Rectangle_129" data-name="Rectangle 129" width="24" height="1.714" transform="translate(0 0)" fill="#5b5b5b"/>
      </g>
    </g>
    <g id="Group_4538" data-name="Group 4538" transform="translate(31.357 432.12)">
      <g id="Group_4537" data-name="Group 4537">
        <path id="Path_207" data-name="Path 207" d="M54,213.05v7.1a1.681,1.681,0,0,0,1.641,1.71H76.354A1.691,1.691,0,0,0,78,220.151v-7.1Zm22.115,6.078a2.565,2.565,0,0,1-3.629.724,2.52,2.52,0,0,1-1.46.463,2.7,2.7,0,0,1,0-5.4,2.52,2.52,0,0,1,1.46.463,2.538,2.538,0,0,1,2.928,0A2.757,2.757,0,0,1,76.115,219.128Z" transform="translate(-54 -213.05)" fill="#5b5b5b"/>
      </g>
    </g>
  </g>
</svg>
