<svg xmlns="http://www.w3.org/2000/svg" width="24.002" height="20.156" viewBox="0 0 24.002 20.156">
  <g id="Group_5341" data-name="Group 5341" transform="translate(-31.357 -355.715)">
    <g id="Group_4526" data-name="Group 4526" transform="translate(38.214 355.715)">
      <g id="Group_4525" data-name="Group 4525">
        <path id="Path_202" data-name="Path 202" d="M126.381,0a5.381,5.381,0,1,0,5.381,5.381A5.387,5.387,0,0,0,126.381,0Z" transform="translate(-121 0)" fill="#5b5b5b"/>
      </g>
    </g>
    <g id="Group_4528" data-name="Group 4528" transform="translate(31.357 367.713)">
      <g id="Group_4527" data-name="Group 4527" transform="translate(0)">
        <path id="Path_203" data-name="Path 203" d="M51.96,302.24A12.5,12.5,0,0,0,44.6,300H41.4a12.5,12.5,0,0,0-7.359,2.24A6.694,6.694,0,0,0,31,307.582c0,.319.358.577.8.577H54.2c.442,0,.8-.258.8-.577A6.694,6.694,0,0,0,51.96,302.24Z" transform="translate(-31 -300)" fill="#5b5b5b"/>
      </g>
    </g>
  </g>
</svg>
