<svg xmlns="http://www.w3.org/2000/svg" width="23.989" height="23.208" viewBox="0 0 23.989 23.208">
  <path id="Path_265" data-name="Path 265" d="M812.2,1337.3a4.3,4.3,0,0,1-.845-.244c-.129-.052-.976-.108-1.139-.159a6.4,6.4,0,0,1-1.9,3.231,3.435,3.435,0,0,1-2.211.78,5.227,5.227,0,0,1-.626-.043c-.874-.137-1.594-.257-2.22-.36-2.683-.463-3.489-.6-8.34.334-1.354.274-2.88-1.071-3.866-2.169-.343.274-1.931.611-2.274.885-.274.214-.257.274-.06.523a7.051,7.051,0,0,0,1.217,1.1,14.4,14.4,0,0,0,3.526,1.489,3.124,3.124,0,0,0,1.011.163,1.13,1.13,0,0,1,.506.06,5.685,5.685,0,0,0,2.683-.129,1.243,1.243,0,0,1,.531-.06,5.293,5.293,0,0,0,1.517-.034c.283-.06.334-.017.334.266l-.026.154a1.433,1.433,0,0,0,.12.926,1.51,1.51,0,0,1,.206.917c-.017.206-.163.386-.1.6.086.257-.017.574.257.771.06.043.017.129,0,.2-.06.343-.129.677-.189,1.02-.069.42.034.591.437.729a.484.484,0,0,0,.591-.283,2.411,2.411,0,0,0,.12-.549c.026-.317.06-.634.077-.943.009-.086.017-.172.111-.206a.524.524,0,0,1,.514.009,3.17,3.17,0,0,1,.677.677,1.194,1.194,0,0,0,.763.4.339.339,0,0,0,.369-.163c.077-.129.009-.249-.077-.352a2.36,2.36,0,0,0-.206-.206,2.693,2.693,0,0,1-.557-.609c-.043-.06-.094-.12-.043-.206a.979.979,0,0,0,.171-.891.237.237,0,0,1,0-.154.238.238,0,0,0-.12-.283.2.2,0,0,1-.077-.257c.111-.249-.069-.514.043-.763a.113.113,0,0,0-.026-.086c-.043-.12-.163-.24-.051-.351s.257.009.377.043a.93.93,0,0,1,.163.069,2.567,2.567,0,0,0,.72.317q.784.18,1.569.283a1.585,1.585,0,0,0,.84-.18c.591-.326,2.323-.9,2.649-1.466a2.2,2.2,0,0,1,.531-.626c.471-.343,1.456-.861,1.5-1.443a.554.554,0,0,1,.094-.249,5.867,5.867,0,0,0,.591-1.183.591.591,0,0,1,.309-.463c.111-.069.116-.167.142-.287C812.624,1337.532,812.53,1337.352,812.2,1337.3Zm-5.8-1.3a11.124,11.124,0,0,1-2.237-.994,2.578,2.578,0,0,1-1.2-1.792.026.026,0,0,1-.009-.017.25.25,0,0,1,.18-.309c.806-.369,1.56-.831,2.357-1.226a1.014,1.014,0,0,0,.274-.2.228.228,0,0,0,.051-.043.469.469,0,0,0-.034-.651,1.331,1.331,0,0,0-.386-.308c-.617-.343-1.157-.8-1.766-1.149a4.674,4.674,0,0,0-1.654-.686c-.043-.009-.1,0-.137-.086.146-.086.36-.111.394-.309a3.75,3.75,0,0,0,.146-.686,1.292,1.292,0,0,0-.06-.72,1.142,1.142,0,0,1-.137-.394c-.06-.377-.326-.514-.643-.6a.487.487,0,0,1-.274-.171.922.922,0,0,0-.746-.429.566.566,0,0,1-.214-.06,1.1,1.1,0,0,0-1.251.206,1.569,1.569,0,0,0-.48,1.131,2.939,2.939,0,0,0,.291,1.749.7.7,0,0,0,.454.411c.111.017.206.043.214.18s-.086.18-.18.223a6.32,6.32,0,0,0-.6.257,1.717,1.717,0,0,0-.883.951,9.419,9.419,0,0,0-.523,1.526.6.6,0,0,1-.566.531,10.3,10.3,0,0,1-1.149,0,3.392,3.392,0,0,0-2.169.317c-.094.06-.223.1-.206.231s.137.163.249.2a3.412,3.412,0,0,0,.977.094,1.755,1.755,0,0,1,.729.111,4.563,4.563,0,0,0,1.294.368c.454.043.917.223,1.371-.1a.277.277,0,0,1-.06.3,2.715,2.715,0,0,0-.514.969c-.171.343-.266.746-.711.857a1.479,1.479,0,0,0-.2.111c-.369.2-1.543.583-1.92.763a14.433,14.433,0,0,0-2.023,1.1c.857.917,1.749,1.568,2.134,1.509,5.16-1,6.12-.831,8.957-.351.609.111,1.32.231,2.186.36a1.847,1.847,0,0,0,1.509-.377,4.6,4.6,0,0,0,1.294-2.271A18.118,18.118,0,0,1,806.4,1336Zm-7.149-1.989a.348.348,0,0,0-.043.077c-.086.489-.489.617-.866.789-.051.017-.111.068-.163,0s.009-.12.051-.18a4.179,4.179,0,0,0,.471-.857c.086-.214.214-.42.317-.626a1.159,1.159,0,0,0,.171-.36c.017-.086.069-.129.171-.171A1.633,1.633,0,0,1,799.249,1334.009Zm3.669-2.82c.026-.137-.043-.309.077-.377.1-.06.189.111.291.163.043.017.077.043.12.06.12.043.077.1.009.154s-.129.094-.2.137c-.086.051-.163.188-.257.146s-.017-.189-.034-.283Z" transform="translate(-788.565 -1325.06)" fill="#5b5b5b"/>
</svg>
