<svg xmlns="http://www.w3.org/2000/svg" width="384.035" height="57.017" viewBox="0 0 384.035 57.017">
  <g id="kalabhoomi_mobile" data-name="kalabhoomi mobile" transform="translate(-396.392 360.251)" opacity="0.3">
    <path id="Path_109" data-name="Path 109" d="M430.887-340.9,416.2-325.768l14.985,20.641H420.75l-10.5-14.617-4.408,4.628v9.989h-8.447v-53.181h8.447v31.879L419.576-340.9Z" transform="translate(0 -0.208)" fill="none" stroke="#fff" stroke-width="2"/>
    <path id="Path_110" data-name="Path 110" d="M444.628-310.2a9.485,9.485,0,0,1,2.975-7.309,14.357,14.357,0,0,1,7.823-3.49l9.182-1.4q2.645-.367,2.644-2.571a5.018,5.018,0,0,0-1.689-3.93,7.424,7.424,0,0,0-5.069-1.506,7.2,7.2,0,0,0-5.142,1.8,7.178,7.178,0,0,0-2.2,4.665l-7.786-1.763a12.144,12.144,0,0,1,4.628-8.264,15.778,15.778,0,0,1,10.431-3.415q7.785,0,11.5,3.746a13.1,13.1,0,0,1,3.71,9.623v17.775a30.222,30.222,0,0,0,.44,5.729h-7.933a17.646,17.646,0,0,1-.367-4.554q-3.526,5.657-11.018,5.655a12.171,12.171,0,0,1-8.779-3.195A10.162,10.162,0,0,1,444.628-310.2Zm13.737,4.113a9.371,9.371,0,0,0,6.427-2.167q2.46-2.167,2.46-7.089v-1.616l-9.329,1.4q-4.776.81-4.775,4.848a4.4,4.4,0,0,0,1.4,3.269A5.24,5.24,0,0,0,458.365-306.085Z" transform="translate(-10.435 -4.832)" fill="none" stroke="#fff" stroke-width="2"/>
    <path id="Path_111" data-name="Path 111" d="M506.137-305.127h-8.521v-53.181h8.521Z" transform="translate(-22.142 -0.208)" fill="none" stroke="#fff" stroke-width="2"/>
    <path id="Path_112" data-name="Path 112" d="M519.678-310.2a9.485,9.485,0,0,1,2.975-7.309,14.352,14.352,0,0,1,7.823-3.49l9.181-1.4q2.645-.367,2.644-2.571a5.018,5.018,0,0,0-1.689-3.93,7.423,7.423,0,0,0-5.069-1.506,7.2,7.2,0,0,0-5.142,1.8,7.174,7.174,0,0,0-2.2,4.665l-7.786-1.763a12.144,12.144,0,0,1,4.628-8.264,15.774,15.774,0,0,1,10.43-3.415q7.785,0,11.5,3.746a13.1,13.1,0,0,1,3.709,9.623v17.775a30.146,30.146,0,0,0,.441,5.729h-7.933a17.638,17.638,0,0,1-.368-4.554Q539.29-299.4,531.8-299.4a12.169,12.169,0,0,1-8.778-3.195A10.159,10.159,0,0,1,519.678-310.2Zm13.736,4.113a9.371,9.371,0,0,0,6.427-2.167q2.46-2.167,2.46-7.089v-1.616l-9.329,1.4q-4.775.81-4.774,4.848a4.4,4.4,0,0,0,1.4,3.269A5.241,5.241,0,0,0,533.414-306.085Z" transform="translate(-27.016 -4.832)" fill="none" stroke="#fff" stroke-width="2"/>
    <path id="Path_113" data-name="Path 113" d="M580.966-305.127h-8.3v-53.181h8.374v21.816a10.16,10.16,0,0,1,4.334-3.82,14.929,14.929,0,0,1,6.9-1.543q7.785,0,12.157,5.253t4.371,13.406q0,8.3-4.59,13.625a15.34,15.34,0,0,1-12.231,5.326q-7.64,0-11.018-5.656Zm16.564-9.732a12.07,12.07,0,0,0,2.681-8.264q0-5.215-2.644-8.19a8.884,8.884,0,0,0-6.978-2.974,8.941,8.941,0,0,0-6.9,2.974q-2.718,2.975-2.717,8.19a11.99,11.99,0,0,0,2.717,8.226,8.8,8.8,0,0,0,6.9,3.085A8.816,8.816,0,0,0,597.53-314.859Z" transform="translate(-38.722 -0.208)" fill="none" stroke="#fff" stroke-width="2"/>
    <path id="Path_114" data-name="Path 114" d="M638.133-326.135v21.008h-8.521v-53.181h8.521v20.861q3.451-4.479,10.21-4.48,6.316,0,9.7,3.966a15.2,15.2,0,0,1,3.378,10.211v22.624H652.9v-21.154a8.862,8.862,0,0,0-1.763-5.767q-1.762-2.166-5.582-2.167a6.638,6.638,0,0,0-5.326,2.277A9.232,9.232,0,0,0,638.133-326.135Z" transform="translate(-51.302 -0.208)" fill="none" stroke="#fff" stroke-width="2"/>
    <path id="Path_115" data-name="Path 115" d="M698.658-337.377a17.872,17.872,0,0,1,13.332,5.362,18.623,18.623,0,0,1,5.253,13.589A18.747,18.747,0,0,1,711.99-304.8a17.807,17.807,0,0,1-13.332,5.4,17.715,17.715,0,0,1-13.258-5.4,18.747,18.747,0,0,1-5.253-13.626,18.623,18.623,0,0,1,5.253-13.589A17.78,17.78,0,0,1,698.658-337.377Zm-7.088,27.288a9.409,9.409,0,0,0,7.088,3.049,9.466,9.466,0,0,0,7.089-3.011q2.9-3.012,2.9-8.374,0-5.289-2.9-8.264a9.524,9.524,0,0,0-7.089-2.974,9.52,9.52,0,0,0-7.088,2.974q-2.9,2.975-2.9,8.264T691.57-310.089Z" transform="translate(-62.467 -4.832)" fill="none" stroke="#fff" stroke-width="2"/>
    <path id="Path_116" data-name="Path 116" d="M753.248-337.377a17.869,17.869,0,0,1,13.332,5.362,18.62,18.62,0,0,1,5.253,13.589A18.744,18.744,0,0,1,766.58-304.8a17.8,17.8,0,0,1-13.332,5.4,17.715,17.715,0,0,1-13.258-5.4,18.744,18.744,0,0,1-5.253-13.626,18.62,18.62,0,0,1,5.253-13.589A17.779,17.779,0,0,1,753.248-337.377Zm-7.089,27.288a9.412,9.412,0,0,0,7.089,3.049,9.465,9.465,0,0,0,7.089-3.011q2.9-3.012,2.9-8.374,0-5.289-2.9-8.264a9.524,9.524,0,0,0-7.089-2.974,9.523,9.523,0,0,0-7.089,2.974q-2.9,2.975-2.9,8.264T746.159-310.089Z" transform="translate(-74.527 -4.832)" fill="none" stroke="#fff" stroke-width="2"/>
    <path id="Path_117" data-name="Path 117" d="M801.358-300.482h-8.447v-35.772h8.154v4.554a9.956,9.956,0,0,1,4.444-4.114,13.7,13.7,0,0,1,6.134-1.469,12.938,12.938,0,0,1,6.464,1.616,9.965,9.965,0,0,1,4.26,4.7q3.746-6.316,11.606-6.317a12.606,12.606,0,0,1,8.962,3.452q3.672,3.453,3.672,10.137v23.212H838.38V-322.3a7.922,7.922,0,0,0-1.726-5.325,6.441,6.441,0,0,0-5.179-2.02,6.892,6.892,0,0,0-5.362,2.276,8.131,8.131,0,0,0-2.056,5.656v21.228h-8.374V-322.3a7.922,7.922,0,0,0-1.726-5.325,6.44,6.44,0,0,0-5.179-2.02,6.914,6.914,0,0,0-5.4,2.24,8.175,8.175,0,0,0-2.02,5.693Z" transform="translate(-87.379 -4.853)" fill="none" stroke="#fff" stroke-width="2"/>
    <path id="Path_118" data-name="Path 118" d="M875.138-349.776a5.3,5.3,0,0,1-1.617-3.893,5.43,5.43,0,0,1,1.617-3.93,5.247,5.247,0,0,1,3.893-1.652A5.4,5.4,0,0,1,883-357.635a5.4,5.4,0,0,1,1.616,3.966A5.307,5.307,0,0,1,883-349.776a5.394,5.394,0,0,1-3.967,1.617A5.3,5.3,0,0,1,875.138-349.776Zm8.153,44.44h-8.447v-35.772h8.447Z" transform="translate(-105.187)" fill="none" stroke="#fff" stroke-width="2"/>
  </g>
</svg>
