<svg xmlns="http://www.w3.org/2000/svg" width="71.183" height="436.368" viewBox="0 0 71.183 436.368">
  <g id="Group_381" data-name="Group 381" transform="translate(637.598 -171.709) rotate(90)" opacity="0.3">
    <path id="Path_21" data-name="Path 21" d="M216.709,590.462l-18.171,19.094,18.54,26.29H202.043L190.051,618.5l-5.073,5.35v11.992H172.709V569.062h12.269v38.28l15.681-16.88Z" transform="translate(0 -0.54)" fill="none" stroke="#fff" stroke-width="2"/>
    <path id="Path_22" data-name="Path 22" d="M243.64,633.239a12.094,12.094,0,0,1,3.782-9.317,18.021,18.021,0,0,1,9.778-4.428l11.161-1.659q3.412-.461,3.413-3.229a5.294,5.294,0,0,0-1.983-4.244,10.2,10.2,0,0,0-11.807.461,7.926,7.926,0,0,0-2.537,5.258l-10.885-2.305a15.953,15.953,0,0,1,5.811-10.423q5.165-4.519,13.652-4.52,10.147,0,14.944,4.843a16.892,16.892,0,0,1,4.8,12.406v22.323a41.725,41.725,0,0,0,.553,7.2H273.065a25.483,25.483,0,0,1-.461-5.443q-4.337,6.735-13.375,6.734-7.011,0-11.3-4.06A12.777,12.777,0,0,1,243.64,633.239Zm18.171,4.519a10.506,10.506,0,0,0,7.149-2.444q2.813-2.443,2.813-8.071v-2.029l-10.238,1.568q-5.627.831-5.627,5.719a5,5,0,0,0,1.568,3.736A5.958,5.958,0,0,0,261.811,637.759Z" transform="translate(-23.241 -10.294)" fill="none" stroke="#fff" stroke-width="2"/>
    <path id="Path_23" data-name="Path 23" d="M333.97,635.846H321.7V569.062H333.97Z" transform="translate(-48.819 -0.54)" fill="none" stroke="#fff" stroke-width="2"/>
    <path id="Path_24" data-name="Path 24" d="M354.9,633.239a12.1,12.1,0,0,1,3.782-9.317,18.023,18.023,0,0,1,9.778-4.428l11.162-1.659q3.412-.461,3.413-3.229a5.292,5.292,0,0,0-1.983-4.244,10.2,10.2,0,0,0-11.807.461,7.932,7.932,0,0,0-2.537,5.258l-10.885-2.305a15.955,15.955,0,0,1,5.811-10.423q5.166-4.519,13.653-4.52,10.146,0,14.943,4.843a16.891,16.891,0,0,1,4.8,12.406v22.323a41.717,41.717,0,0,0,.554,7.2H384.33a25.481,25.481,0,0,1-.461-5.443q-4.337,6.735-13.376,6.734-7.01,0-11.3-4.06A12.78,12.78,0,0,1,354.9,633.239Zm18.172,4.519a10.5,10.5,0,0,0,7.148-2.444q2.814-2.443,2.814-8.071v-2.029L372.8,626.782q-5.629.831-5.628,5.719a5,5,0,0,0,1.569,3.736A5.958,5.958,0,0,0,373.076,637.759Z" transform="translate(-59.698 -10.294)" fill="none" stroke="#fff" stroke-width="2"/>
    <path id="Path_25" data-name="Path 25" d="M444.867,635.846h-11.9V569.062H445.05v26.381a12.841,12.841,0,0,1,5.3-4.382,18.837,18.837,0,0,1,8.44-1.8q9.686,0,15.312,6.641t5.627,17.065q0,10.424-5.9,17.2a19.557,19.557,0,0,1-15.5,6.78q-9.318,0-13.467-6.642Zm19.417-13.33q3.183-3.458,3.182-9.454t-3.182-9.409a10.56,10.56,0,0,0-8.071-3.413,10.7,10.7,0,0,0-8.118,3.413q-3.229,3.414-3.228,9.409t3.274,9.454a10.672,10.672,0,0,0,8.071,3.459A10.49,10.49,0,0,0,464.283,622.516Z" transform="translate(-85.275 -0.54)" fill="none" stroke="#fff" stroke-width="2"/>
    <path id="Path_26" data-name="Path 26" d="M529.2,609.187v26.659H516.931V569.062H529.2v25.182q4.151-4.981,12.268-4.981,8.3,0,12.591,5.028t4.29,12.959v28.6H546.08V609.372A9.9,9.9,0,0,0,544,602.822q-2.076-2.49-6.319-2.49a7.76,7.76,0,0,0-6.042,2.49A9.834,9.834,0,0,0,529.2,609.187Z" transform="translate(-112.787 -0.54)" fill="none" stroke="#fff" stroke-width="2"/>
    <path id="Path_27" data-name="Path 27" d="M625.982,646.275a25.856,25.856,0,0,1-.369-4.889,10.855,10.855,0,0,1-5.211,4.566,18.012,18.012,0,0,1-7.333,1.522q-8.025,0-12.637-5.119a18.372,18.372,0,0,1-4.612-12.776V600.891h12.268v26.2a9.928,9.928,0,0,0,2.122,6.6,7.594,7.594,0,0,0,6.18,2.537,8.21,8.21,0,0,0,6.272-2.444,9.092,9.092,0,0,0,2.306-6.5V600.891h12.268v37.174a69.287,69.287,0,0,0,.461,8.21Z" transform="translate(-138.635 -10.969)" fill="none" stroke="#fff" stroke-width="2"/>
    <path id="Path_28" data-name="Path 28" d="M689.17,645.645H676.9V600.262h11.715V605.8a12.234,12.234,0,0,1,5.535-4.981,17.494,17.494,0,0,1,7.748-1.845q9.869,0,13.468,7.564,4.888-7.562,14.39-7.564a16.678,16.678,0,0,1,11.669,4.335q4.749,4.338,4.751,12.914v29.426h-11.9V618.71a9.339,9.339,0,0,0-1.983-6.227q-1.985-2.352-6.042-2.352a7.768,7.768,0,0,0-6.088,2.583,9.211,9.211,0,0,0-2.306,6.365v26.566H705.682V618.71a9.2,9.2,0,0,0-2.03-6.227,7.487,7.487,0,0,0-6-2.352,7.943,7.943,0,0,0-6.18,2.537,9.166,9.166,0,0,0-2.306,6.411Z" transform="translate(-165.203 -10.339)" fill="none" stroke="#fff" stroke-width="2"/>
    <path id="Path_29" data-name="Path 29" d="M796.261,575.072a7.445,7.445,0,0,1,2.214-5.4,7.214,7.214,0,0,1,5.35-2.26,7.291,7.291,0,0,1,5.35,2.214,7.4,7.4,0,0,1,2.214,5.443,7.182,7.182,0,0,1-2.214,5.257,7.57,7.57,0,0,1-10.7,0A7.179,7.179,0,0,1,796.261,575.072Zm13.744,60.234H797.737V589.922h12.268Z" transform="translate(-204.312)" fill="none" stroke="#fff" stroke-width="2"/>
  </g>
</svg>
