<svg xmlns="http://www.w3.org/2000/svg" width="62.129" height="419.536" viewBox="0 0 62.129 419.536">
  <g id="Group_427" data-name="Group 427" transform="translate(-298.122 -396.392) rotate(90)" opacity="0.3">
    <path id="Path_109" data-name="Path 109" d="M434-339.282l-16.056,16.537,16.377,22.559h-11.4l-11.48-15.975-4.818,5.058v10.918h-9.232v-58.122h9.232v34.841l15.013-15.815Z" transform="translate(0 -0.14)" fill="none" stroke="#fff" stroke-width="2"/>
    <path id="Path_110" data-name="Path 110" d="M444.628-307.673a10.366,10.366,0,0,1,3.252-7.988,15.691,15.691,0,0,1,8.55-3.814L466.465-321q2.89-.4,2.89-2.81a5.484,5.484,0,0,0-1.846-4.295,8.114,8.114,0,0,0-5.54-1.646,7.864,7.864,0,0,0-5.62,1.966,7.845,7.845,0,0,0-2.409,5.1l-8.51-1.927a13.272,13.272,0,0,1,5.058-9.032,17.244,17.244,0,0,1,11.4-3.733q8.509,0,12.564,4.094a14.315,14.315,0,0,1,4.055,10.517v19.427a33.028,33.028,0,0,0,.481,6.262h-8.671a19.286,19.286,0,0,1-.4-4.977q-3.853,6.183-12.042,6.181a13.3,13.3,0,0,1-9.594-3.492A11.107,11.107,0,0,1,444.628-307.673Zm15.013,4.5a10.242,10.242,0,0,0,7.025-2.368q2.688-2.368,2.689-7.748v-1.766l-10.2,1.525q-5.22.885-5.219,5.3a4.805,4.805,0,0,0,1.526,3.573A5.727,5.727,0,0,0,459.641-303.178Z" transform="translate(-7.016 -3.249)" fill="none" stroke="#fff" stroke-width="2"/>
    <path id="Path_111" data-name="Path 111" d="M506.929-300.186h-9.313v-58.122h9.313Z" transform="translate(-14.886 -0.14)" fill="none" stroke="#fff" stroke-width="2"/>
    <path id="Path_112" data-name="Path 112" d="M519.678-307.673a10.366,10.366,0,0,1,3.252-7.988,15.685,15.685,0,0,1,8.55-3.814L541.514-321q2.89-.4,2.89-2.81a5.484,5.484,0,0,0-1.846-4.295,8.112,8.112,0,0,0-5.54-1.646,7.864,7.864,0,0,0-5.62,1.966,7.84,7.84,0,0,0-2.408,5.1l-8.51-1.927a13.272,13.272,0,0,1,5.058-9.032,17.24,17.24,0,0,1,11.4-3.733q8.509,0,12.564,4.094a14.318,14.318,0,0,1,4.054,10.517v19.427a32.945,32.945,0,0,0,.482,6.262h-8.671a19.275,19.275,0,0,1-.4-4.977q-3.853,6.183-12.042,6.181a13.3,13.3,0,0,1-9.594-3.492A11.1,11.1,0,0,1,519.678-307.673Zm15.012,4.5a10.242,10.242,0,0,0,7.025-2.368q2.688-2.368,2.689-7.748v-1.766l-10.2,1.525q-5.219.885-5.218,5.3a4.8,4.8,0,0,0,1.525,3.573A5.729,5.729,0,0,0,534.69-303.178Z" transform="translate(-18.163 -3.249)" fill="none" stroke="#fff" stroke-width="2"/>
    <path id="Path_113" data-name="Path 113" d="M581.738-300.186h-9.072v-58.122h9.152v23.843a11.1,11.1,0,0,1,4.737-4.175,16.316,16.316,0,0,1,7.546-1.686q8.509,0,13.286,5.741t4.777,14.651q0,9.072-5.017,14.891a16.765,16.765,0,0,1-13.367,5.821q-8.35,0-12.042-6.182Zm18.1-10.637q2.93-3.331,2.93-9.032t-2.89-8.952a9.71,9.71,0,0,0-7.627-3.251,9.772,9.772,0,0,0-7.547,3.251q-2.971,3.252-2.97,8.952a13.1,13.1,0,0,0,2.97,8.991,9.612,9.612,0,0,0,7.547,3.372A9.635,9.635,0,0,0,599.841-310.822Z" transform="translate(-26.033 -0.14)" fill="none" stroke="#fff" stroke-width="2"/>
    <path id="Path_114" data-name="Path 114" d="M638.925-323.146v22.96h-9.313v-58.122h9.313v22.8q3.772-4.9,11.159-4.9,6.9,0,10.6,4.335a16.615,16.615,0,0,1,3.692,11.159v24.726h-9.313v-23.12a9.685,9.685,0,0,0-1.927-6.3q-1.926-2.367-6.1-2.368a7.255,7.255,0,0,0-5.821,2.489A10.089,10.089,0,0,0,638.925-323.146Z" transform="translate(-34.491 -0.14)" fill="none" stroke="#fff" stroke-width="2"/>
    <path id="Path_115" data-name="Path 115" d="M700.378-337.377a19.533,19.533,0,0,1,14.571,5.861,20.353,20.353,0,0,1,5.741,14.851,20.489,20.489,0,0,1-5.741,14.892,19.462,19.462,0,0,1-14.571,5.9,19.361,19.361,0,0,1-14.49-5.9,20.489,20.489,0,0,1-5.741-14.892,20.353,20.353,0,0,1,5.741-14.851A19.432,19.432,0,0,1,700.378-337.377Zm-7.747,29.824a10.283,10.283,0,0,0,7.747,3.332,10.345,10.345,0,0,0,7.748-3.291q3.17-3.291,3.171-9.152,0-5.781-3.171-9.032a10.409,10.409,0,0,0-7.748-3.251,10.4,10.4,0,0,0-7.747,3.251q-3.173,3.252-3.171,9.032T692.631-307.553Z" transform="translate(-41.996 -3.249)" fill="none" stroke="#fff" stroke-width="2"/>
    <path id="Path_116" data-name="Path 116" d="M754.968-337.377a19.529,19.529,0,0,1,14.57,5.861,20.351,20.351,0,0,1,5.741,14.851,20.486,20.486,0,0,1-5.741,14.892,19.458,19.458,0,0,1-14.57,5.9,19.361,19.361,0,0,1-14.49-5.9,20.485,20.485,0,0,1-5.741-14.892,20.35,20.35,0,0,1,5.741-14.851A19.432,19.432,0,0,1,754.968-337.377Zm-7.748,29.824a10.286,10.286,0,0,0,7.748,3.332,10.345,10.345,0,0,0,7.748-3.291q3.17-3.291,3.171-9.152,0-5.781-3.171-9.032a10.409,10.409,0,0,0-7.748-3.251,10.407,10.407,0,0,0-7.748,3.251q-3.171,3.252-3.17,9.032T747.221-307.553Z" transform="translate(-50.104 -3.249)" fill="none" stroke="#fff" stroke-width="2"/>
    <path id="Path_117" data-name="Path 117" d="M802.144-297.063h-9.233v-39.1h8.912v4.978a10.88,10.88,0,0,1,4.857-4.5,14.972,14.972,0,0,1,6.7-1.606,14.139,14.139,0,0,1,7.065,1.766,10.891,10.891,0,0,1,4.656,5.138q4.095-6.9,12.684-6.9a13.777,13.777,0,0,1,9.795,3.773q4.013,3.774,4.014,11.079v25.369H842.6v-23.843a8.658,8.658,0,0,0-1.886-5.82,7.039,7.039,0,0,0-5.661-2.208,7.532,7.532,0,0,0-5.861,2.488,8.886,8.886,0,0,0-2.247,6.182v23.2H817.8v-23.843a8.659,8.659,0,0,0-1.887-5.82,7.039,7.039,0,0,0-5.661-2.208,7.556,7.556,0,0,0-5.9,2.448,8.935,8.935,0,0,0-2.208,6.222Z" transform="translate(-58.745 -3.263)" fill="none" stroke="#fff" stroke-width="2"/>
    <path id="Path_118" data-name="Path 118" d="M875.289-348.9a5.8,5.8,0,0,1-1.767-4.255,5.935,5.935,0,0,1,1.767-4.295,5.734,5.734,0,0,1,4.255-1.806,5.9,5.9,0,0,1,4.336,1.766,5.9,5.9,0,0,1,1.766,4.335,5.8,5.8,0,0,1-1.766,4.255,5.9,5.9,0,0,1-4.336,1.767A5.794,5.794,0,0,1,875.289-348.9Zm8.911,48.57h-9.232v-39.1H884.2Z" transform="translate(-70.718)" fill="none" stroke="#fff" stroke-width="2"/>
  </g>
</svg>
