<svg xmlns="http://www.w3.org/2000/svg" width="27.701" height="35.577" viewBox="0 0 27.701 35.577">
  <g id="pdf" transform="translate(-6.299 0.2)">
    <path id="Path_8506" data-name="Path 8506" d="M33.459,7.392l-.468-.468L26.869.8,26.4.334A1.147,1.147,0,0,0,25.6,0H7.994A1.572,1.572,0,0,0,6.5,1.775v32.19a1.39,1.39,0,0,0,1.115,1.158c.03.008.059.019.091.025a1.478,1.478,0,0,0,.288.029H32.3a1.478,1.478,0,0,0,.288-.029c.032-.006.061-.018.091-.025a1.39,1.39,0,0,0,1.115-1.158v-.281L33.8,22.263,33.793,8.478A1.4,1.4,0,0,0,33.459,7.392Zm-1.829-.113H26.515V2.162ZM7.994,33.964a.35.35,0,0,1-.12-.03.278.278,0,0,1-.161-.251V23.231H32.579V33.684a.278.278,0,0,1-.161.251.35.35,0,0,1-.12.03ZM7.712,22.018V1.775c0-.132.02-.562.281-.562H25.337a.934.934,0,0,0-.035.237V8.491h7.041a.929.929,0,0,0,.237-.035c0,.009,0,.013,0,.022v13.54Z" transform="translate(0)" fill="#303030" stroke="#303030" stroke-width="0.4"/>
    <path id="Path_8507" data-name="Path 8507" d="M19.958,44.421a2.085,2.085,0,0,0-.684-.373,2.467,2.467,0,0,0-.771-.124H16.745v6.111h1V47.829h.738a2.616,2.616,0,0,0,.879-.141,1.981,1.981,0,0,0,.68-.4,1.767,1.767,0,0,0,.44-.634,2.167,2.167,0,0,0,.158-.842,1.669,1.669,0,0,0-.187-.792A1.95,1.95,0,0,0,19.958,44.421ZM19.58,46.44a1,1,0,0,1-.24.394.909.909,0,0,1-.328.2,1.1,1.1,0,0,1-.361.062H17.74V44.678h.746a1.342,1.342,0,0,1,.614.12,1,1,0,0,1,.361.3.993.993,0,0,1,.17.373,1.7,1.7,0,0,1,.041.344A1.866,1.866,0,0,1,19.58,46.44Z" transform="translate(-4.031 -18.318)" fill="#303030" stroke="#303030" stroke-width="0.4"/>
    <path id="Path_8508" data-name="Path 8508" d="M29.251,44.819a2.808,2.808,0,0,0-.97-.651,3.5,3.5,0,0,0-1.356-.244H25.084v6.111H27.4a3.3,3.3,0,0,0,.357-.029,2.447,2.447,0,0,0,.531-.133,2.78,2.78,0,0,0,.6-.311,2.109,2.109,0,0,0,.56-.568,3.206,3.206,0,0,0,.411-.9,4.49,4.49,0,0,0,.162-1.289,3.069,3.069,0,0,0-.19-1.066A2.691,2.691,0,0,0,29.251,44.819Zm-.725,3.839a1.647,1.647,0,0,1-1.459.647h-.987V44.678h.58a3.053,3.053,0,0,1,1.161.187,1.86,1.86,0,0,1,.709.489,1.614,1.614,0,0,1,.352.676,3.174,3.174,0,0,1,.091.754A3.281,3.281,0,0,1,28.525,48.658Z" transform="translate(-7.313 -18.318)" fill="#303030" stroke="#303030" stroke-width="0.4"/>
    <path id="Path_8509" data-name="Path 8509" d="M35.6,50.035H36.61V47.282h2.554V46.6H36.61V44.678H39.42v-.754H35.6Z" transform="translate(-11.45 -18.318)" fill="#303030" stroke="#303030" stroke-width="0.4"/>
    <path id="Path_8510" data-name="Path 8510" d="M30.554,17.037a11.739,11.739,0,0,0-2.037.217,19.38,19.38,0,0,1-3.086-4.586c.811-3.414.405-3.9.226-4.125s-.459-.636-.765-.636a2.991,2.991,0,0,0-.616.1,1.165,1.165,0,0,0-.688.737c-.429,1,.16,2.712.765,4.029a40.713,40.713,0,0,1-2.3,6.52c-2.3,1.053-3.52,2.087-3.63,3.074a1.453,1.453,0,0,0,.676,1.36.974.974,0,0,0,.586.2h0c.531,0,1.067-.406,1.687-1.278a17.209,17.209,0,0,0,1.445-2.578,29.061,29.061,0,0,1,5.354-1.712,4.033,4.033,0,0,0,2.554,1.386,1.61,1.61,0,0,0,1.346-.722,1.226,1.226,0,0,0,.237-1.31C32.08,17.259,31.5,17.037,30.554,17.037ZM19.7,22.9c-.284-.218-.267-.365-.261-.42.038-.337.566-.936,1.862-1.664C20.321,22.634,19.793,22.875,19.7,22.9ZM24.676,9c.026-.008.634.668.058,1.951A1.455,1.455,0,0,1,24.676,9Zm-1.254,9.72a43.24,43.24,0,0,0,1.622-4.588A20.761,20.761,0,0,0,27.362,17.5,30.211,30.211,0,0,0,23.422,18.721Zm7.825-.291a.914.914,0,0,1-.734.267c-.323,0-.444-.192-.938-.573a8.731,8.731,0,0,1,1.1-.066c.539,0,.638.079.713.119A.941.941,0,0,1,31.247,18.431Z" transform="translate(-4.69 -4.146)" fill="#303030" stroke="#303030" stroke-width="0.4"/>
  </g>
</svg>
