<svg xmlns="http://www.w3.org/2000/svg" width="31.824" height="31.824" viewBox="0 0 31.824 31.824">
  <g id="play" transform="translate(0)">
    <path id="Path_33" data-name="Path 33" d="M27.164,4.661a15.912,15.912,0,0,0-22.5,22.5,15.912,15.912,0,0,0,22.5-22.5ZM15.912,29.96A14.047,14.047,0,1,1,29.96,15.912,14.063,14.063,0,0,1,15.912,29.96Z" transform="translate(0 0)" fill="#fff"/>
    <path id="Path_34" data-name="Path 34" d="M183.666,119.257l-11.188-8.08a.932.932,0,0,0-1.478.756v16.161a.932.932,0,0,0,1.478.756l11.188-8.08a.932.932,0,0,0,0-1.512Zm-10.8,7.013V113.756l8.663,6.257Z" transform="translate(-160.371 -104.101)" fill="#fff"/>
  </g>
</svg>
