<svg xmlns="http://www.w3.org/2000/svg" width="85.351" height="85.376" viewBox="0 0 85.351 85.376">
  <g id="Group_5308" data-name="Group 5308" transform="translate(-1060.462 -1574.353)">
    <path id="Path_8766" data-name="Path 8766" d="M1060.462,1617.019a42.675,42.675,0,1,1,42.707,42.71A42.706,42.706,0,0,1,1060.462,1617.019Zm42.75,36.868c20.62-.291,36.721-16.494,36.712-36.853a36.8,36.8,0,1,0-73.6.182C1066.417,1637.813,1082.855,1653.73,1103.212,1653.887Z" transform="translate(0 0)" fill="#f77"/>
    <path id="Path_8767" data-name="Path 8767" d="M1195.948,1792.265a2.785,2.785,0,0,1-1.834-.955,19.153,19.153,0,0,0-26.469-.29,3.92,3.92,0,0,1-1.923,1.2,2.914,2.914,0,0,1-3.173-1.422,3.022,3.022,0,0,1,.574-3.592,25.194,25.194,0,0,1,5.989-4.382,24.069,24.069,0,0,1,11.587-2.859,24.653,24.653,0,0,1,16.688,6.347c.354.314.728.609,1.048.955a2.891,2.891,0,0,1,.571,3.29C1198.52,1791.711,1197.564,1792.225,1195.948,1792.265Z" transform="translate(-77.613 -156.859)" fill="#f77"/>
    <path id="Path_8768" data-name="Path 8768" d="M1151.2,1698.007a4.627,4.627,0,0,1,4.559,4.506,4.553,4.553,0,1,1-4.559-4.506Z" transform="translate(-65.758 -94.333)" fill="#f77"/>
    <path id="Path_8769" data-name="Path 8769" d="M1300.224,1698.04a4.589,4.589,0,0,1,4.554,4.5,4.547,4.547,0,0,1-9.094.02A4.608,4.608,0,0,1,1300.224,1698.04Z" transform="translate(-179.448 -94.359)" fill="#f77"/>
  </g>
</svg>
