<svg xmlns="http://www.w3.org/2000/svg" width="26.016" height="26.001" viewBox="0 0 26.016 26.001">
  <g id="Group_433" data-name="Group 433" transform="translate(-226.542 -438.141)">
    <path id="Path_111" data-name="Path 111" d="M238.038,438.143a11.4,11.4,0,0,1,11.32,9.849,11.134,11.134,0,0,1-2.015,8.22c-.164.232-.135.352.052.537q2.339,2.321,4.659,4.66a1.563,1.563,0,0,1-.521,2.623,1.534,1.534,0,0,1-1.714-.412c-1.536-1.537-3.079-3.067-4.6-4.613a.4.4,0,0,0-.624-.054A10.987,10.987,0,0,1,237.039,461a11.166,11.166,0,0,1-8.937-5.675,10.6,10.6,0,0,1-1.5-6.632,11.2,11.2,0,0,1,7.156-9.739A10.178,10.178,0,0,1,238.038,438.143Zm-.068,19.745a8.3,8.3,0,1,0-8.259-8.36A8.293,8.293,0,0,0,237.971,457.889Z" transform="translate(0 0)" fill="#acacac"/>
  </g>
</svg>
