<svg xmlns="http://www.w3.org/2000/svg" xmlns:xlink="http://www.w3.org/1999/xlink" width="77" height="77" viewBox="0 0 77 77">
  <defs>
    <filter id="Ellipse_1" x="0" y="0" width="77" height="77" filterUnits="userSpaceOnUse">
      <feOffset dy="3" input="SourceAlpha"/>
      <feGaussianBlur stdDeviation="3" result="blur"/>
      <feFlood flood-opacity="0.188"/>
      <feComposite operator="in" in2="blur"/>
      <feComposite in="SourceGraphic"/>
    </filter>
  </defs>
  <g id="Group_4520" data-name="Group 4520" transform="translate(-1267 -390)">
    <g transform="matrix(1, 0, 0, 1, 1267, 390)" filter="url(#Ellipse_1)">
      <circle id="Ellipse_1-2" data-name="Ellipse 1" cx="29.5" cy="29.5" r="29.5" transform="translate(9 6)" fill="#fff"/>
    </g>
    <g id="arrow-down-sign-to-navigate_1_" data-name="arrow-down-sign-to-navigate (1)" transform="translate(1299 436.021) rotate(-90)">
      <path id="Path_97" data-name="Path 97" d="M11.011,12.554a1.538,1.538,0,0,1-1.09-.451L.452,2.633A1.542,1.542,0,0,1,2.633.452l8.379,8.379L19.39.452a1.542,1.542,0,0,1,2.181,2.181L12.1,12.1A1.538,1.538,0,0,1,11.011,12.554Z" transform="translate(0 0)" fill="#130202"/>
    </g>
  </g>
</svg>
