<svg xmlns="http://www.w3.org/2000/svg" width="27.075" height="32.453" viewBox="0 0 27.075 32.453">
  <g id="Group_5179" data-name="Group 5179" transform="translate(-702.02 -291.195)">
    <path id="Path_8682" data-name="Path 8682" d="M740.83,306.828a7.818,7.818,0,1,0-5.526-2.29A7.563,7.563,0,0,0,740.83,306.828Z" transform="translate(-25.477 0)" fill="#9d7e7e"/>
    <path id="Path_8683" data-name="Path 8683" d="M729.03,388.547a19.332,19.332,0,0,0-.263-2.05,16.19,16.19,0,0,0-.5-2.062,10.18,10.18,0,0,0-.848-1.923,7.254,7.254,0,0,0-1.278-1.666,5.637,5.637,0,0,0-1.836-1.154,6.345,6.345,0,0,0-2.344-.424,2.379,2.379,0,0,0-1.27.539c-.381.248-.826.536-1.324.853a7.582,7.582,0,0,1-1.712.754,6.649,6.649,0,0,1-4.189,0,7.56,7.56,0,0,1-1.711-.754c-.492-.315-.938-.6-1.325-.854a2.374,2.374,0,0,0-1.27-.539,6.338,6.338,0,0,0-2.343.424,5.633,5.633,0,0,0-1.836,1.154,7.252,7.252,0,0,0-1.278,1.665,10.2,10.2,0,0,0-.848,1.923,16.174,16.174,0,0,0-.5,2.062,19.342,19.342,0,0,0-.263,2.051c-.043.621-.065,1.265-.065,1.916a5.388,5.388,0,0,0,1.6,4.077,5.761,5.761,0,0,0,4.124,1.5h15.626a5.76,5.76,0,0,0,4.124-1.5,5.386,5.386,0,0,0,1.6-4.077C729.1,389.81,729.073,389.166,729.03,388.547Z" transform="translate(0 -72.398)" fill="#9d7e7e"/>
  </g>
</svg>
