<svg xmlns="http://www.w3.org/2000/svg" width="22.97" height="20.519" viewBox="0 0 22.97 20.519">
  <g id="users" transform="translate(-0.001 35.506)">
    <g id="Group_375" data-name="Group 375" transform="translate(0.001 -35.506)">
      <path id="Path_18" data-name="Path 18" d="M18.623,35.492a5.732,5.732,0,0,0-7.133-8.949,5.734,5.734,0,0,0-7.141,8.948A8.147,8.147,0,0,0,0,42.731v2.461a.82.82,0,0,0,.82.82H22.15a.82.82,0,0,0,.82-.82V42.731A8.147,8.147,0,0,0,18.623,35.492Zm-3.856-8.347a4.1,4.1,0,0,1,1.686,7.831c-.063.029-.126.055-.19.082a4.022,4.022,0,0,1-.624.194c-.041.009-.082.014-.124.022a4.1,4.1,0,0,1-.722.073c-.109,0-.219-.008-.328-.018a.62.62,0,0,1-.123-.008,4.144,4.144,0,0,1-1.341-.4c-.016-.007-.034-.007-.049-.013-.082-.039-.164-.074-.237-.118.007-.008.011-.017.017-.025a5.755,5.755,0,0,0,.879-1.6l.025-.069a5.787,5.787,0,0,0,.217-.844c.007-.042.013-.082.02-.127a5.237,5.237,0,0,0,0-1.762c-.007-.043-.012-.082-.02-.127a5.788,5.788,0,0,0-.217-.844l-.025-.069a5.756,5.756,0,0,0-.879-1.6c-.007-.008-.011-.017-.017-.025A4.076,4.076,0,0,1,14.767,27.145ZM4.1,31.246a4.091,4.091,0,0,1,6.923-2.963c.048.046.094.092.14.139a4.217,4.217,0,0,1,.389.472c.036.051.069.105.1.158a4.035,4.035,0,0,1,.3.554c.021.047.036.094.054.141a4.01,4.01,0,0,1,.2.656c.006.025.007.049.012.075a3.862,3.862,0,0,1,0,1.544c0,.025-.007.05-.012.075a4,4,0,0,1-.2.656c-.018.047-.034.094-.054.141a4.049,4.049,0,0,1-.3.553c-.034.052-.066.107-.1.158a4.209,4.209,0,0,1-.389.472c-.046.048-.093.094-.14.139a4.1,4.1,0,0,1-1.133.765c-.066.03-.134.058-.2.082a4.126,4.126,0,0,1-.609.189c-.052.011-.105.018-.158.027a4.069,4.069,0,0,1-.675.068h-.09a4.065,4.065,0,0,1-.675-.068c-.052-.009-.106-.016-.158-.027a4.124,4.124,0,0,1-.609-.189l-.2-.082A4.1,4.1,0,0,1,4.1,31.246ZM14.767,44.372H1.641V42.731A6.522,6.522,0,0,1,6,36.549a5.725,5.725,0,0,0,4.4,0,6.591,6.591,0,0,1,.8.354c.171.088.328.188.492.289.107.066.215.131.317.2.158.112.308.235.454.36.094.082.188.164.276.246.135.128.262.263.385.4.088.1.173.2.254.307.107.138.21.279.305.424.082.123.155.251.227.379s.158.282.226.429.13.308.189.464c.052.136.107.272.149.41.057.19.1.387.138.584.025.116.057.231.075.349a6.785,6.785,0,0,1,.075.981v1.641Zm6.563,0H16.408V42.731c0-.257-.015-.511-.038-.763-.007-.074-.018-.147-.026-.221-.022-.181-.048-.361-.082-.539q-.022-.114-.047-.229-.059-.274-.137-.543c-.017-.059-.033-.119-.051-.177a8.129,8.129,0,0,0-.989-2.073l-.032-.047q-.212-.314-.452-.608l-.006-.007a7.446,7.446,0,0,0-.529-.588h.034a5.808,5.808,0,0,0,.7.049H14.8a5.8,5.8,0,0,0,.646-.042c.067-.008.134-.021.2-.031q.262-.04.517-.1c.048-.012.1-.024.147-.038a5.586,5.586,0,0,0,.656-.223,6.522,6.522,0,0,1,4.366,6.184v1.641Z" transform="translate(-0.001 -25.494)" fill="#fff"/>
    </g>
  </g>
</svg>
