<svg xmlns="http://www.w3.org/2000/svg" width="16.7" height="15.108" viewBox="0 0 16.7 15.108">
  <g id="users" transform="translate(0.099 35.775)" style="isolation: isolate">
    <g id="Group_4593" data-name="Group 4593" transform="translate(0.001 -35.506)">
      <path id="Path_295" data-name="Path 295" d="M13.377,32.676a4.117,4.117,0,0,0-5.124-6.428,4.119,4.119,0,0,0-5.13,6.428A5.852,5.852,0,0,0,0,37.876v1.768a.589.589,0,0,0,.589.589H15.911a.589.589,0,0,0,.589-.589V37.876A5.852,5.852,0,0,0,13.377,32.676Zm-2.77-6A2.942,2.942,0,0,1,11.819,32.3c-.045.021-.091.039-.137.059a2.889,2.889,0,0,1-.448.14c-.029.006-.059.01-.089.016a2.948,2.948,0,0,1-.519.052c-.078,0-.157-.006-.236-.013a.445.445,0,0,1-.088-.006,2.977,2.977,0,0,1-.963-.284c-.011-.005-.024,0-.035-.009-.059-.028-.118-.053-.17-.085,0-.006.008-.012.012-.018a4.134,4.134,0,0,0,.631-1.15l.018-.05a4.157,4.157,0,0,0,.156-.606c.005-.03.009-.059.014-.091a3.762,3.762,0,0,0,0-1.266c0-.031-.009-.059-.014-.091a4.157,4.157,0,0,0-.156-.606l-.018-.05a4.135,4.135,0,0,0-.631-1.15c0-.006-.008-.012-.012-.018A2.928,2.928,0,0,1,10.608,26.68ZM2.947,29.626A2.939,2.939,0,0,1,7.92,27.5c.034.033.068.066.1.1a3.03,3.03,0,0,1,.279.339c.026.037.05.075.074.113a2.9,2.9,0,0,1,.216.4c.015.034.026.068.039.1a2.88,2.88,0,0,1,.146.471c0,.018.005.035.009.054a2.774,2.774,0,0,1,0,1.109c0,.018,0,.036-.009.054a2.874,2.874,0,0,1-.146.471c-.013.034-.024.068-.039.1a2.909,2.909,0,0,1-.216.4c-.024.038-.048.077-.074.113a3.023,3.023,0,0,1-.279.339c-.033.034-.067.067-.1.1a2.941,2.941,0,0,1-.814.549c-.048.022-.1.042-.145.059a2.964,2.964,0,0,1-.437.136c-.037.008-.075.013-.113.019a2.923,2.923,0,0,1-.485.049H5.861a2.92,2.92,0,0,1-.485-.049c-.038-.006-.076-.011-.113-.019a2.962,2.962,0,0,1-.437-.136l-.145-.059A2.946,2.946,0,0,1,2.947,29.626Zm7.661,9.428H1.179V37.876a4.685,4.685,0,0,1,3.134-4.441,4.112,4.112,0,0,0,3.161,0,4.734,4.734,0,0,1,.574.254c.123.063.236.135.354.207.077.048.154.094.228.147.114.081.221.169.326.259.068.059.135.118.2.177.1.092.189.189.276.289.063.072.124.145.183.22.077.1.151.2.219.3.059.088.111.18.163.272s.113.2.163.308.093.221.136.334.077.2.107.295c.041.137.07.278.1.42.018.084.041.166.054.25a4.874,4.874,0,0,1,.054.7v1.179Zm4.714,0H11.786V37.876c0-.184-.011-.367-.027-.548,0-.053-.013-.105-.019-.159-.016-.13-.034-.259-.059-.387q-.016-.082-.034-.164-.042-.2-.1-.39c-.012-.042-.024-.085-.037-.127a5.839,5.839,0,0,0-.71-1.489l-.023-.034q-.152-.226-.325-.437l0-.005a5.348,5.348,0,0,0-.38-.423H10.1a4.173,4.173,0,0,0,.5.035h.032a4.167,4.167,0,0,0,.464-.03c.048-.006.1-.015.144-.022q.188-.029.371-.075l.105-.027a4.013,4.013,0,0,0,.471-.16,4.685,4.685,0,0,1,3.136,4.442v1.179Z" transform="translate(-0.001 -25.494)" fill="#5b5b5b" stroke="#5b5b5b" stroke-width="0.2"/>
    </g>
  </g>
</svg>
