<svg xmlns="http://www.w3.org/2000/svg" width="24.008" height="17.571" viewBox="0 0 24.008 17.571">
  <path id="youtube" d="M23.477,6.011l.03.2A3.1,3.1,0,0,0,21.438,4.03l-.021-.005c-1.872-.525-9.4-.525-9.4-.525s-7.513-.01-9.4.525A3.1,3.1,0,0,0,.527,6.192l-.005.022A35.709,35.709,0,0,0,.553,18.562l-.031-.2A3.1,3.1,0,0,0,2.591,20.54l.021.005c1.87.526,9.4.526,9.4.526s7.512,0,9.4-.526A3.1,3.1,0,0,0,23.5,18.379l.005-.022a33.361,33.361,0,0,0,.5-5.838c0-.075,0-.152,0-.228s0-.154,0-.238a34.417,34.417,0,0,0-.531-6.042ZM9.611,16.059V8.521L15.879,12.3Z" transform="translate(0 -3.5)" fill="#fff"/>
</svg>
